<svg version="1.1" xmlns="http://www.w3.org/2000/svg" xmlns:xlink="http://www.w3.org/1999/xlink" tabindex="0" id="logo" viewBox="0 0 144 37">  <g transform="translate(3,3) scale(0.9538322996774597,0.9538322996774597)" style="color: rgb(255, 255, 255);"> <g opacity="1" fill="#ffffff" style="font-size: 30px; font-family: &quot;Julius Sans One&quot;, &quot;Source Sans 3&quot;, &quot;Roboto&quot;; font-style: normal; font-weight: bold"><path d="M18.42 23.78Q18.42 23.78 17.38 25Q16.35 26.22 12.12 26.22Q7.89 26.22 5.81 23.76Q3.72 21.3 3.72 17.04L3.72 4.41L5.16 4.41L5.16 17.04Q5.16 24.96 12.11 24.96Q19.05 24.96 19.05 17.04L19.05 4.41L20.49 4.41L20.49 17.04Q20.49 21.33 18.42 23.78ZM27.81 25.86L27.81 6.27L28.47 6.27L41.25 20.97Q41.94 21.75 42.53 22.52Q43.11 23.28 43.14 23.31Q43.08 22.59 43.08 20.49L43.08 6.39L44.46 6.39L44.46 25.98L43.8 25.98L30.78 11.04L29.13 9.03Q29.19 9.63 29.19 11.85L29.19 25.86ZM51.66 25.86L51.66 6.39L53.04 6.39L53.04 25.86ZM68.85 26.16Q64.68 26.16 61.86 23.25Q59.04 20.34 59.04 16.13Q59.04 11.91 61.86 9Q64.68 6.09 68.85 6.09Q73.02 6.09 75.82 9Q78.63 11.91 78.63 16.11Q78.63 18.6 77.58 20.73Q76.53 22.86 74.7 24.24Q81.84 28.47 85.68 29.34Q87.66 29.82 89.49 29.82Q91.32 29.82 93.44 29.4Q95.55 28.98 96.45 28.53L96.78 29.31Q95.64 29.85 93.47 30.38Q91.29 30.9 89.39 30.9Q87.48 30.9 85.32 30.41Q83.16 29.91 80.82 28.83Q78.48 27.75 77.21 27.08Q75.93 26.4 73.53 24.99Q71.37 26.16 68.85 26.16ZM68.83 7.32Q68.83 7.32 67.03 7.32Q65.22 7.32 62.85 9.87Q60.48 12.42 60.48 16.13Q60.48 19.83 62.85 22.37Q65.22 24.9 68.85 24.9Q70.74 24.9 72.27 24.18Q68.88 21.9 66.99 21.9Q65.91 21.9 65.01 22.32L64.56 21.48Q65.58 20.82 66.84 20.82Q68.1 20.82 69.3 21.27Q70.5 21.72 71.33 22.2Q72.15 22.68 73.47 23.55Q75.21 22.38 76.22 20.42Q77.22 18.45 77.22 16.11Q77.22 12.42 74.83 9.87Q72.45 7.32 68.83 7.32ZM92.13 21.51L99.33 4.41L100.86 4.41L91.62 26.04L90.78 26.04L81.51 4.41L83.13 4.41L90.33 21.45Q91.08 23.28 91.26 23.97Q91.5 23.01 92.13 21.51ZM105.3 25.86L105.3 4.53Q107.79 4.29 110.13 4.29Q113.28 4.29 115.19 5.76Q117.09 7.23 117.09 10.19Q117.09 13.14 114.5 15.05Q111.9 16.95 108.3 16.95Q108.15 16.95 107.97 16.95L107.97 15.96Q108.09 15.96 108.18 15.96Q111.15 15.96 113.34 14.4Q115.53 12.84 115.53 10.34Q115.53 7.83 114 6.71Q112.47 5.58 109.89 5.58Q108.54 5.58 106.74 5.7L106.74 25.86ZM124.11 7.83L124.17 10.38L124.17 25.86L122.73 25.86L122.73 4.23L123.39 4.23L137.52 20.52Q138.96 22.23 139.74 23.25Q139.62 21.81 139.62 19.95L139.62 4.41L141.06 4.41L141.06 26.04L140.4 26.04L126 9.45Q124.5 7.74 124.08 7.17Z"/></g></g>  </svg>